<svg xmlns="http://www.w3.org/2000/svg" width="124.937" height="121.077" viewBox="0 0 124.937 121.077"><defs><style>.a{fill:#ffcc48;}.b,.g{fill:none;}.b,.c,.d,.e{stroke:#000;stroke-linecap:round;stroke-linejoin:round;}.b,.c,.d{stroke-width:3px;}.d,.e{fill:#fff;}.f{stroke:none;}</style></defs><g transform="translate(-1025.888 -2573.5)"><rect class="a" width="55" height="55" transform="translate(1028 2575)"/><g transform="translate(17.269 2812.569)"><g transform="translate(1032.782 -237.569)"><path class="b" d="M1036.473-207.617s50.764-29.5,49.974-29.952l0,59.857" transform="translate(-1036.473 237.569)"/><path class="c" d="M1094.81-237.569l0,59.857c3.02,1.7,49.227,26.687,49.227,26.687v-56.592S1094.019-237.112,1094.81-237.569Z" transform="translate(-1044.837 237.569)"/></g><path class="b" d="M1036.476-202.6l49.973,29.9,0,58.219-37.8-23.845" transform="translate(-3.692 -5.014)"/><path class="d" d="M1144.032-202.6l0,56.592c-3.02,1.7-49.216,31.533-49.216,31.533l0-58.219S1144.823-202.146,1144.032-202.6Z" transform="translate(-12.056 -5.014)"/><path class="c" d="M1141.112-179.988l-.044,41.176c-3.02,1.7-21.175,13.574-21.175,13.574v-41.707a3.531,3.531,0,0,1,1.688-3.012l17.89-10.952A1.078,1.078,0,0,1,1141.112-179.988Z" transform="translate(-15.653 -8.102)"/><g transform="translate(1010.731 -192.487)"><path class="b" d="M1010.731-167.463a11.233,11.233,0,0,1,4.092,8.681A11.224,11.224,0,0,1,1011-150.33" transform="translate(-1010.731 182.435)"/><path class="b" d="M1017.059-172.684a18.158,18.158,0,0,1,5.438,13.213,18.235,18.235,0,0,1-5.081,12.865" transform="translate(-1011.638 183.183)"/><path class="b" d="M1023.407-177.82a24.375,24.375,0,0,1,7.217,17.672,24.493,24.493,0,0,1-6.743,17.205" transform="translate(-1012.549 183.92)"/><path class="b" d="M1029.281-184.941a32.506,32.506,0,0,1,9.985,23.853,32.629,32.629,0,0,1-9.33,23.224" transform="translate(-1013.391 184.941)"/></g><g transform="translate(1044.989 -186.954)"><line class="d" x2="25.561" y2="31.546" transform="translate(0)"/><line class="d" x2="12.781" y2="15.773" transform="translate(2.014 15.773)"/><line class="d" x2="4.347" y2="5.365" transform="translate(20.494 38.252)"/></g><g class="e" transform="translate(1119.568 -161.247) rotate(-85.21)"><ellipse class="f" cx="2.152" cy="1.358" rx="2.152" ry="1.358"/><ellipse class="g" cx="2.152" cy="1.358" rx="2.652" ry="1.858"/></g><path class="c" d="M1094.814-167.692" transform="translate(-12.057 -10.02)"/></g></g></svg>