<svg xmlns="http://www.w3.org/2000/svg" width="101.532" height="117.5" viewBox="0 0 101.532 117.5"><defs><style>.a{fill:#ffcc48;}.b{fill:none;}.b,.c{stroke:#000;stroke-linecap:round;stroke-linejoin:round;stroke-width:3px;}</style></defs><g transform="translate(-173.5 -2583.5)"><rect class="a" width="55" height="55" transform="translate(175 2646)"/><g transform="translate(-1429.965 3005.805)"><line class="b" x2="68.034" transform="translate(1635.463 -364.502)"/><path class="b" d="M1681.518-358.974h9.384v7.038" transform="translate(-15.558 -12.566)"/><path class="b" d="M1705.073-359.116v-7.038h14.076v-28.152h-11.73" transform="translate(-20.345 -5.385)"/><path class="b" d="M0,0H5.841A5.889,5.889,0,0,1,11.73,5.889v28.1a5.889,5.889,0,0,1-5.889,5.889H0a0,0,0,0,1,0,0V0A0,0,0,0,1,0,0Z" transform="translate(1677.691 -420.805)"/><line class="b" y2="11.73" transform="translate(1626.079 -329.312)"/><path class="c" d="M1630.819-365.508l14.076,9.384h9.384c10.731,0,9.384-11.73,9.384-11.73h-11.73l-16.422-11.729h-9.384a9.384,9.384,0,0,0-9.384,9.384v25.806a14.075,14.075,0,0,0,14.076,14.076h16.422l14.076,25.806h10.669l-11.327-34.373a11.729,11.729,0,0,0-11.071-7.855h-11.73v-14.076" transform="translate(-2.393 -8.377)"/><path class="b" d="M1604.965-373.7v35.19a18.768,18.768,0,0,0,18.768,18.768h16.422" transform="translate(0 -9.574)"/><path class="b" d="M1604.965-338.363h18.768l4.692,7.038" transform="translate(0 -16.754)"/><path class="b" d="M1641.95-286.562h-9.384l-4.693-4.692-4.691,4.692H1613.8" transform="translate(-1.795 -26.328)"/><path class="c" d="M1630.244-394.4a10.273,10.273,0,0,0,10.556-10.054v-3.353a10.273,10.273,0,0,0-10.556-10.054,10.274,10.274,0,0,0-10.557,10.054v3.353A10.274,10.274,0,0,0,1630.244-394.4Z" transform="translate(-2.992 -0.598)"/></g></g></svg>