<svg xmlns="http://www.w3.org/2000/svg" width="109.5" height="130.221" viewBox="0 0 109.5 130.221"><defs><style>.a{fill:#ffcc48;}.b,.c{fill:none;stroke:#000;stroke-linecap:round;stroke-linejoin:round;}.b{stroke-width:2.885px;}.c{stroke-width:3px;}</style></defs><g transform="translate(-600.5 -2210)"><rect class="a" width="55" height="55" transform="translate(655 2232)"/><g transform="translate(-1122.351 2470.33)"><g transform="translate(1748.717 -260.33)"><path d="M1764.381-260.33a13.308,13.308,0,0,0-13.3,13.3,13.312,13.312,0,0,0,13.3,13.294,13.311,13.311,0,0,0,13.3-13.3A13.308,13.308,0,0,0,1764.381-260.33Z" transform="translate(-1751.083 260.33)"/><g transform="translate(19.924 27.74)"><path d="M1786.241-229.9a13.3,13.3,0,0,0-13.3,13.3,13.3,13.3,0,0,0,13.3,13.3,13.3,13.3,0,0,0,13.3-13.3v0A13.313,13.313,0,0,0,1786.241-229.9Z" transform="translate(-1772.942 229.896)"/></g><path d="M1816.323-165.7h-24.74a12.752,12.752,0,0,0-12.643,12.858,12.75,12.75,0,0,0,12.643,12.642h23.853a9.816,9.816,0,0,0,5.758-1.861l0-28.515A4.88,4.88,0,0,1,1816.323-165.7Zm-19.842,16.65a5.153,5.153,0,0,1-7.286,0,5.153,5.153,0,0,1,0-7.287,5.154,5.154,0,0,1,7.287,0,5.215,5.215,0,0,1,1.51,3.646A5.155,5.155,0,0,1,1796.481-149.054Z" transform="translate(-1753.549 252.386)"/></g><path class="b" d="M1782.895-191.089h-52.316a6.228,6.228,0,0,1-6.228-6.228h0a6.229,6.229,0,0,1,6.228-6.228h13.72" transform="translate(0 -5.026)"/><path class="c" d="M1800.768-190.539a6.438,6.438,0,0,1,6.438,6.438v51.68a6.438,6.438,0,0,1-6.438,6.438h-69.98a6.438,6.438,0,0,1-6.437-6.438v-64.346" transform="translate(0 -5.626)"/><path class="c" d="M1800.768-191.144h-70.189a6.228,6.228,0,0,1-6.228-6.228h0a6.228,6.228,0,0,1,6.228-6.228h13.72" transform="translate(0 -5.021)"/><path class="c" d="M1804.813-203.6h12.411a6.671,6.671,0,0,1,6.67,6.67v63.672a6.671,6.671,0,0,1-6.67,6.67h-18.352" transform="translate(-6.596 -5.021)"/><line class="c" y2="7.907" transform="translate(1767.427 -204.021)"/><line class="c" y2="7.907" transform="translate(1755.474 -212.524)"/><line class="c" y2="16.565" transform="translate(1736.17 -178.81)"/><line class="c" y2="7.517" transform="translate(1793.891 -245.508)"/><line class="c" x2="7.661" transform="translate(1789.978 -241.749)"/><g transform="translate(1734.871 -157.004)"><path d="M1738.111-146.59a1.3,1.3,0,0,0-1.837,0,1.3,1.3,0,0,0,0,1.838,1.3,1.3,0,0,0,1.837,0,1.3,1.3,0,0,0,.381-.915A1.314,1.314,0,0,0,1738.111-146.59Z" transform="translate(-1735.893 146.97)"/></g></g></g></svg>