<svg xmlns="http://www.w3.org/2000/svg" width="290" height="68.23" viewBox="0 0 290 68.23"><defs><style>.a{fill:#fff;}</style></defs><g transform="translate(-1455 -9080.708)"><g transform="translate(1455 9080.708)"><g transform="translate(0 29.852)"><rect class="a" width="72.497" height="4.264" transform="translate(0 34.115)"/><rect class="a" width="72.497" height="4.264" transform="translate(0 25.587)"/><rect class="a" width="72.497" height="4.264" transform="translate(0 17.056)"/><rect class="a" width="72.497" height="4.264" transform="translate(0 8.528)"/><rect class="a" width="72.497" height="4.264"/></g><g transform="translate(0 0)"><rect width="72.497" height="4.267" transform="translate(0 25.584)"/><rect width="72.497" height="4.264" transform="translate(0 17.056)"/><rect width="72.497" height="4.264" transform="translate(0 8.528)"/><rect width="72.497" height="4.264" transform="translate(0 0)"/></g><rect width="4.264" height="29.851" transform="translate(72.505 0.001)"/><rect class="a" width="4.264" height="38.379" transform="translate(72.505 29.852)"/><g transform="translate(81.033 0)"><rect width="4.264" height="68.23"/><rect width="4.264" height="68.23" transform="translate(8.528)"/><rect width="4.264" height="68.23" transform="translate(17.059)"/><rect width="4.264" height="68.23" transform="translate(25.587)"/><rect width="4.264" height="68.23" transform="translate(34.115)"/><rect width="4.262" height="68.23" transform="translate(42.646)"/><rect width="4.264" height="68.23" transform="translate(51.174)"/><rect width="4.264" height="68.23" transform="translate(59.703)"/></g><g transform="translate(81.033 29.852)"><rect class="a" width="4.264" height="38.378" transform="translate(0 0)"/><rect class="a" width="4.264" height="38.378" transform="translate(8.528 0)"/><rect class="a" width="4.264" height="38.378" transform="translate(17.059 0)"/><rect class="a" width="4.264" height="38.378" transform="translate(25.587 0)"/><rect class="a" width="4.264" height="38.378" transform="translate(34.115 0)"/><rect class="a" width="4.262" height="38.378" transform="translate(42.646 0)"/><rect class="a" width="4.264" height="38.378" transform="translate(51.174 0)"/><rect class="a" width="4.264" height="38.378" transform="translate(59.703 0)"/></g></g><g transform="translate(1600 9080.708)"><g transform="translate(0 29.852)"><rect class="a" width="72.497" height="4.264" transform="translate(0 34.115)"/><rect class="a" width="72.497" height="4.264" transform="translate(0 25.587)"/><rect class="a" width="72.497" height="4.264" transform="translate(0 17.056)"/><rect class="a" width="72.497" height="4.264" transform="translate(0 8.528)"/><rect class="a" width="72.497" height="4.264"/></g><g transform="translate(0 0)"><rect width="72.497" height="4.267" transform="translate(0 25.584)"/><rect width="72.497" height="4.264" transform="translate(0 17.056)"/><rect width="72.497" height="4.264" transform="translate(0 8.528)"/><rect width="72.497" height="4.264" transform="translate(0 0)"/></g><rect width="4.264" height="29.851" transform="translate(72.505 0.001)"/><rect class="a" width="4.264" height="38.379" transform="translate(72.505 29.852)"/><g transform="translate(81.033 0)"><rect width="4.264" height="68.23"/><rect width="4.264" height="68.23" transform="translate(8.528)"/><rect width="4.264" height="68.23" transform="translate(17.059)"/><rect width="4.264" height="68.23" transform="translate(25.587)"/><rect width="4.264" height="68.23" transform="translate(34.115)"/><rect width="4.262" height="68.23" transform="translate(42.646)"/><rect width="4.264" height="68.23" transform="translate(51.174)"/><rect width="4.264" height="68.23" transform="translate(59.703)"/></g><g transform="translate(81.033 29.852)"><rect class="a" width="4.264" height="38.378" transform="translate(0 0)"/><rect class="a" width="4.264" height="38.378" transform="translate(8.528 0)"/><rect class="a" width="4.264" height="38.378" transform="translate(17.059 0)"/><rect class="a" width="4.264" height="38.378" transform="translate(25.587 0)"/><rect class="a" width="4.264" height="38.378" transform="translate(34.115 0)"/><rect class="a" width="4.262" height="38.378" transform="translate(42.646 0)"/><rect class="a" width="4.264" height="38.378" transform="translate(51.174 0)"/><rect class="a" width="4.264" height="38.378" transform="translate(59.703 0)"/></g></g></g></svg>